<svg width="40" height="47" viewBox="0 0 40 47" fill="none" xmlns="http://www.w3.org/2000/svg">
    <path d="M30.348 3.16813C22.7555 -1.55361 12.8847 -0.644521 6.41217 5.37198C-0.131754 11.4491 -1.89949 21.1791 2.19595 29.0964C4.78717 34.0991 7.49916 39.0412 10.1892 43.9944C11.3585 46.1431 12.5718 46.5509 14.647 45.4434C19.6702 42.7547 24.6989 40.0771 29.6672 37.2782C34.2568 34.6942 37.2597 30.7768 38.764 25.708C41.3332 17.0303 37.913 7.87886 30.348 3.16813ZM26.1922 22.8981C20.9274 22.8981 16.0634 26.3361 14.4823 31.6584C16.4147 25.1625 12.7365 18.3251 6.26394 16.3802C7.43328 16.7328 8.6136 16.8981 9.77746 16.8981C15.0422 16.8981 19.9063 13.4601 21.4873 8.13781C21.1415 9.31136 20.9713 10.4904 20.9713 11.6585C20.9713 16.9422 24.4025 21.8237 29.7002 23.416C28.5308 23.0634 27.3505 22.8981 26.1922 22.8981ZM32.0004 13.8127C29.9911 13.8127 28.1356 15.124 27.5262 17.157C28.2673 14.6777 26.8619 12.0662 24.3915 11.3224C24.8362 11.4546 25.2918 11.5207 25.731 11.5207C27.7403 11.5207 29.5959 10.2039 30.2053 8.17087C30.0735 8.62265 30.0076 9.07444 30.0076 9.52072C30.0076 11.5372 31.3197 13.3995 33.3455 14.0111C32.8953 13.8788 32.4451 13.8127 32.0004 13.8127Z" fill="#25C977"/>
</svg>
