<svg width="48" height="55" viewBox="0 0 48 55" fill="none" xmlns="http://www.w3.org/2000/svg">
    <path d="M36.6131 3.60045C27.5292 -2.04879 15.7195 -0.961135 7.97556 6.2372C0.146201 13.508 -1.96878 25.1493 2.93114 34.6218C6.03135 40.6073 9.27607 46.5202 12.4945 52.4463C13.8936 55.0171 15.3451 55.5049 17.8279 54.1799C23.8379 50.9631 29.8544 47.7595 35.7987 44.4108C41.2897 41.3192 44.8826 36.6324 46.6823 30.5678C49.7562 20.1856 45.6642 9.23651 36.6131 3.60045ZM31.641 27.206C25.342 27.206 19.5225 31.3193 17.6309 37.6871C19.9429 29.9152 15.5422 21.7347 7.79821 19.4078C9.19725 19.8297 10.6094 20.0274 12.0019 20.0274C18.3008 20.0274 24.1203 15.9141 26.012 9.54632C25.5982 10.9504 25.3946 12.3611 25.3946 13.7585C25.3946 20.0801 29.4997 25.9206 35.8381 27.8256C34.439 27.4037 33.0269 27.206 31.641 27.206ZM38.5902 16.336C36.1862 16.336 33.9661 17.9048 33.2371 20.3372C34.1238 17.3709 32.4423 14.2463 29.4866 13.3564C30.0186 13.5146 30.5638 13.5937 31.0892 13.5937C33.4932 13.5937 35.7133 12.0183 36.4424 9.58587C36.2847 10.1264 36.2059 10.6669 36.2059 11.2009C36.2059 13.6135 37.7757 15.8416 40.1994 16.5733C39.6608 16.4151 39.1222 16.336 38.5902 16.336Z" fill="#25C977"/>
</svg>
