<svg width="152" height="32" viewBox="0 0 152 32" fill="none" xmlns="http://www.w3.org/2000/svg">
    <g clip-path="url(#clip0_238_49)">
        <path d="M50.4415 0.923079H52.7947C53.6354 0.923079 54.3073 1.59733 54.3073 2.44105V28.9244C54.3073 29.7681 53.6354 30.4423 52.7947 30.4423H50.4415C49.6439 30.4423 48.9721 29.7681 48.9721 28.9244V27.9112C47.5853 29.6816 45.4836 30.9471 42.1639 30.9471C35.5677 30.9471 31.7846 25.3368 31.7846 19.7733C31.7846 14.2098 35.5677 8.55619 42.1639 8.55619C45.4836 8.55619 47.5853 9.82176 48.9721 11.5921V2.44105C48.9721 1.59733 49.6439 0.923079 50.4415 0.923079ZM48.717 19.7733C48.717 16.4417 46.6584 13.7014 43.001 13.7014C39.3437 13.7014 37.2455 16.485 37.2455 19.7733C37.2455 23.0616 39.3473 25.8452 43.001 25.8452C46.6548 25.8452 48.717 23.0616 48.717 19.7733Z" fill="#25C977"/>
        <path d="M79.0574 19.7733C79.0574 26.0146 74.2252 30.9904 67.7979 30.9904C61.3705 30.9904 56.5779 26.0146 56.5779 19.7733C56.5779 13.5319 61.41 8.55618 67.7979 8.55618C74.1857 8.55618 79.0574 13.4887 79.0574 19.7733ZM73.5965 19.7733C73.5965 16.4417 71.369 13.7014 67.7979 13.7014C64.2267 13.7014 62.0424 16.4417 62.0424 19.7733C62.0424 23.1049 64.2698 25.8452 67.7979 25.8452C71.3259 25.8452 73.5965 23.1049 73.5965 19.7733Z" fill="#25C977"/>
        <path d="M92.3324 8.63911C93.0042 8.55618 93.5935 9.06097 93.5935 9.77849V13.1534C93.5935 13.7879 93.0905 14.2927 92.4582 14.2927C87.2056 14.1233 86.4907 17.92 86.4907 21.6302V28.9244C86.4907 29.7681 85.8188 30.4423 85.0213 30.4423H82.668C81.8274 30.4423 81.1555 29.7681 81.1555 28.9244V10.5789C81.1555 9.73522 81.8274 9.06097 82.668 9.06097H85.0213C85.8188 9.06097 86.4907 9.73522 86.4907 10.5789V12.5188C87.8344 10.3265 90.1049 9.0177 92.3324 8.63911Z" fill="#25C977"/>
        <path d="M126.578 17.0727V28.9208C126.578 29.7645 125.906 30.4387 125.109 30.4387H122.755C121.915 30.4387 121.243 29.7645 121.243 28.9208V18.1688C121.243 15.5114 120.151 13.7411 117.672 13.7411C115.193 13.7411 113.889 15.7242 113.889 18.1688V28.9208C113.889 29.7645 113.217 30.4387 112.376 30.4387H110.066C109.225 30.4387 108.553 29.7645 108.553 28.9208V18.1688C108.553 15.5114 107.461 13.7411 104.982 13.7411C102.503 13.7411 101.199 15.7242 101.199 18.1688V28.9208C101.199 29.7645 100.527 30.4387 99.6867 30.4387H97.3766C96.5359 30.4387 95.864 29.7645 95.864 28.9208V10.5789C95.864 9.73522 96.5359 9.06097 97.3766 9.06097H99.6867C100.527 9.06097 101.199 9.73522 101.199 10.5789V11.3397C102.291 9.77849 104.016 8.55618 106.829 8.55618C109.642 8.55618 111.618 9.90468 112.71 11.8878C114.014 10.0309 116.156 8.55618 119.138 8.55618C124.052 8.55618 126.574 12.5188 126.574 17.0763L126.578 17.0727Z" fill="#25C977"/>
        <path d="M140.737 8.55618C138.093 8.55618 135.711 9.4035 133.832 10.8458C131.173 12.8721 129.517 16.0919 129.517 19.7697C129.517 20.7252 129.632 21.6554 129.851 22.5388C129.858 22.5785 129.873 22.6253 129.883 22.6722C131.112 27.4893 135.38 30.9904 140.737 30.9904C147.168 30.9904 152 26.011 152 19.7697C152 13.5283 147.168 8.55618 140.737 8.55618ZM140.737 25.8452C137.205 25.8452 134.978 23.1049 134.978 19.7697C134.978 16.4345 137.205 13.7014 140.737 13.7014C144.268 13.7014 146.535 16.4417 146.535 19.7697C146.535 23.0977 144.308 25.8452 140.737 25.8452Z" fill="#25C977"/>
        <path d="M19.8605 3.02155C14.8917 -0.0684716 8.43207 0.526456 4.19627 4.4638C-0.0862273 8.4408 -1.24308 14.8083 1.43708 19.9896C3.13283 23.2635 4.90763 26.4978 6.66805 29.7392C7.4333 31.1454 8.22728 31.4122 9.58533 30.6875C12.8726 28.928 16.1636 27.1756 19.415 25.344C22.4185 23.6529 24.3837 21.0893 25.3681 17.7722C27.0494 12.0933 24.8112 6.10436 19.8605 3.02155ZM17.1408 15.9333C13.6954 15.9333 10.5122 18.1832 9.47754 21.6662C10.7422 17.4152 8.33506 12.9406 4.09927 11.6678C4.86452 11.8986 5.63695 12.0068 6.3986 12.0068C9.844 12.0068 13.0271 9.75686 14.0618 6.27382C13.8355 7.04182 13.7241 7.81343 13.7241 8.57782C13.7241 12.0356 15.9696 15.2302 19.4365 16.2722C18.6713 16.0415 17.8988 15.9333 17.1408 15.9333ZM20.9419 9.98762C19.6269 9.98762 18.4126 10.8458 18.0138 12.1762C18.4988 10.5537 17.5791 8.84464 15.9624 8.35788C16.2534 8.44441 16.5516 8.48768 16.839 8.48768C18.1539 8.48768 19.3683 7.62593 19.767 6.29546C19.6808 6.59112 19.6377 6.88678 19.6377 7.17884C19.6377 8.4985 20.4964 9.7172 21.8221 10.1174C21.5275 10.0309 21.2329 9.98762 20.9419 9.98762Z" fill="#25C977"/>
    </g>
    <defs>
        <clipPath id="clip0_238_49">
            <rect width="152" height="30.1538" fill="white" transform="translate(0 0.923079)"/>
        </clipPath>
    </defs>
</svg>
